<svg id="visual" viewBox="0 0 960 540" width="960" height="540" xmlns="http://www.w3.org/2000/svg" xmlns:xlink="http://www.w3.org/1999/xlink" version="1.1"><g stroke-width="1" stroke-linejoin="bevel"><path d="M421 272L418 258L342 303Z" fill="#162784" stroke="#162784"></path><path d="M418 258L304 252L342 303Z" fill="#16288c" stroke="#16288c"></path><path d="M421 126L404 170L603 235Z" fill="#16267d" stroke="#16267d"></path><path d="M418 258L404 170L304 252Z" fill="#16257a" stroke="#16257a"></path><path d="M245 168L260 273L304 252Z" fill="#162475" stroke="#162475"></path><path d="M304 252L260 273L342 303Z" fill="#162889" stroke="#162889"></path><path d="M603 235L404 170L418 258Z" fill="#162475" stroke="#162475"></path><path d="M404 170L245 168L304 252Z" fill="#162578" stroke="#162578"></path><path d="M260 273L305 417L342 303Z" fill="#162475" stroke="#162475"></path><path d="M342 303L423 430L421 272Z" fill="#162578" stroke="#162578"></path><path d="M305 417L423 430L342 303Z" fill="#162784" stroke="#162784"></path><path d="M421 272L603 235L418 258Z" fill="#162475" stroke="#162475"></path><path d="M421 126L245 168L404 170Z" fill="#162784" stroke="#162784"></path><path d="M182 192L180 253L260 273Z" fill="#16288c" stroke="#16288c"></path><path d="M260 273L175 443L305 417Z" fill="#16267f" stroke="#16267f"></path><path d="M245 168L182 192L260 273Z" fill="#162475" stroke="#162475"></path><path d="M423 430L560 380L421 272Z" fill="#16288c" stroke="#16288c"></path><path d="M560 380L603 235L421 272Z" fill="#162784" stroke="#162784"></path><path d="M78 143L126 313L180 253Z" fill="#16288c" stroke="#16288c"></path><path d="M180 253L126 313L260 273Z" fill="#16257a" stroke="#16257a"></path><path d="M603 235L559 87L421 126Z" fill="#162889" stroke="#162889"></path><path d="M421 126L277 0L245 168Z" fill="#16267f" stroke="#16267f"></path><path d="M126 313L175 443L260 273Z" fill="#162784" stroke="#162784"></path><path d="M305 417L416 540L423 430Z" fill="#162475" stroke="#162475"></path><path d="M289 540L416 540L305 417Z" fill="#162473" stroke="#162473"></path><path d="M423 430L578 540L560 380Z" fill="#162787" stroke="#162787"></path><path d="M505 0L408 0L421 126Z" fill="#162473" stroke="#162473"></path><path d="M97 0L78 143L182 192Z" fill="#162475" stroke="#162475"></path><path d="M282 540L289 540L305 417Z" fill="#16267d" stroke="#16267d"></path><path d="M186 498L282 540L305 417Z" fill="#16267d" stroke="#16267d"></path><path d="M408 0L277 0L421 126Z" fill="#162787" stroke="#162787"></path><path d="M175 443L186 498L305 417Z" fill="#16257a" stroke="#16257a"></path><path d="M52 540L186 498L175 443Z" fill="#16257a" stroke="#16257a"></path><path d="M559 87L505 0L421 126Z" fill="#16257a" stroke="#16257a"></path><path d="M578 540L639 449L560 380Z" fill="#16288c" stroke="#16288c"></path><path d="M560 380L755 309L603 235Z" fill="#162889" stroke="#162889"></path><path d="M768 256L657 118L603 235Z" fill="#162578" stroke="#162578"></path><path d="M603 235L657 118L559 87Z" fill="#162784" stroke="#162784"></path><path d="M559 87L641 0L505 0Z" fill="#16267f" stroke="#16267f"></path><path d="M97 0L182 192L245 168Z" fill="#162784" stroke="#162784"></path><path d="M182 192L78 143L180 253Z" fill="#162475" stroke="#162475"></path><path d="M416 540L578 540L423 430Z" fill="#162473" stroke="#162473"></path><path d="M783 331L755 309L772 436Z" fill="#162889" stroke="#162889"></path><path d="M639 449L755 309L560 380Z" fill="#16267f" stroke="#16267f"></path><path d="M759 0L641 0L657 118Z" fill="#162889" stroke="#162889"></path><path d="M657 118L641 0L559 87Z" fill="#16267d" stroke="#16267d"></path><path d="M78 143L0 202L126 313Z" fill="#16257a" stroke="#16257a"></path><path d="M126 313L0 395L175 443Z" fill="#162682" stroke="#162682"></path><path d="M0 202L0 353L126 313Z" fill="#16257a" stroke="#16257a"></path><path d="M78 143L0 119L0 202Z" fill="#162784" stroke="#162784"></path><path d="M277 0L97 0L245 168Z" fill="#162682" stroke="#162682"></path><path d="M755 309L768 256L603 235Z" fill="#162889" stroke="#162889"></path><path d="M0 353L0 395L126 313Z" fill="#16267f" stroke="#16267f"></path><path d="M97 0L0 119L78 143Z" fill="#16267f" stroke="#16267f"></path><path d="M772 436L755 309L639 449Z" fill="#162787" stroke="#162787"></path><path d="M755 309L783 331L768 256Z" fill="#162784" stroke="#162784"></path><path d="M0 395L52 540L175 443Z" fill="#162787" stroke="#162787"></path><path d="M186 498L52 540L282 540Z" fill="#162473" stroke="#162473"></path><path d="M734 540L772 436L639 449Z" fill="#16267d" stroke="#16267d"></path><path d="M578 540L734 540L639 449Z" fill="#16267f" stroke="#16267f"></path><path d="M0 395L0 540L52 540Z" fill="#16288c" stroke="#16288c"></path><path d="M97 0L0 0L0 119Z" fill="#16267d" stroke="#16267d"></path><path d="M960 485L832 375L772 436Z" fill="#162889" stroke="#162889"></path><path d="M772 436L832 375L783 331Z" fill="#162889" stroke="#162889"></path><path d="M783 331L857 222L768 256Z" fill="#162475" stroke="#162475"></path><path d="M842 129L759 0L657 118Z" fill="#162787" stroke="#162787"></path><path d="M842 129L657 118L768 256Z" fill="#162473" stroke="#162473"></path><path d="M832 375L857 222L783 331Z" fill="#162787" stroke="#162787"></path><path d="M857 222L842 129L768 256Z" fill="#162889" stroke="#162889"></path><path d="M734 540L790 540L772 436Z" fill="#16288c" stroke="#16288c"></path><path d="M960 92L822 0L842 129Z" fill="#16288c" stroke="#16288c"></path><path d="M842 129L822 0L759 0Z" fill="#162889" stroke="#162889"></path><path d="M960 485L960 338L832 375Z" fill="#162475" stroke="#162475"></path><path d="M832 375L960 338L857 222Z" fill="#162787" stroke="#162787"></path><path d="M857 222L960 167L842 129Z" fill="#162682" stroke="#162682"></path><path d="M960 338L960 167L857 222Z" fill="#16267d" stroke="#16267d"></path><path d="M960 167L960 92L842 129Z" fill="#16257a" stroke="#16257a"></path><path d="M790 540L960 485L772 436Z" fill="#162889" stroke="#162889"></path><path d="M790 540L960 540L960 485Z" fill="#162475" stroke="#162475"></path><path d="M960 92L960 0L822 0Z" fill="#162787" stroke="#162787"></path></g></svg>